<svg id="visual" viewBox="0 0 1920 920" width="1920" height="920" xmlns="http://www.w3.org/2000/svg" xmlns:xlink="http://www.w3.org/1999/xlink" version="1.1"><rect x="0" y="0" width="1920" height="920" fill="#f1f1f1"></rect><path d="M0 577L45.7 594C91.3 611 182.7 645 274.2 650.3C365.7 655.7 457.3 632.3 548.8 630.8C640.3 629.3 731.7 649.7 823 643.8C914.3 638 1005.7 606 1097 600C1188.3 594 1279.7 614 1371.2 626.8C1462.7 639.7 1554.3 645.3 1645.8 638.7C1737.3 632 1828.7 613 1874.3 603.5L1920 594L1920 921L1874.3 921C1828.7 921 1737.3 921 1645.8 921C1554.3 921 1462.7 921 1371.2 921C1279.7 921 1188.3 921 1097 921C1005.7 921 914.3 921 823 921C731.7 921 640.3 921 548.8 921C457.3 921 365.7 921 274.2 921C182.7 921 91.3 921 45.7 921L0 921Z" fill="#f3f0f0"></path><path d="M0 716L45.7 701.7C91.3 687.3 182.7 658.7 274.2 657.5C365.7 656.3 457.3 682.7 548.8 688.8C640.3 695 731.7 681 823 665.5C914.3 650 1005.7 633 1097 628.2C1188.3 623.3 1279.7 630.7 1371.2 638.3C1462.7 646 1554.3 654 1645.8 667.8C1737.3 681.7 1828.7 701.3 1874.3 711.2L1920 721L1920 921L1874.3 921C1828.7 921 1737.3 921 1645.8 921C1554.3 921 1462.7 921 1371.2 921C1279.7 921 1188.3 921 1097 921C1005.7 921 914.3 921 823 921C731.7 921 640.3 921 548.8 921C457.3 921 365.7 921 274.2 921C182.7 921 91.3 921 45.7 921L0 921Z" fill="#f8e5e7"></path><path d="M0 745L45.7 733.2C91.3 721.3 182.7 697.7 274.2 699C365.7 700.3 457.3 726.7 548.8 741.7C640.3 756.7 731.7 760.3 823 764.7C914.3 769 1005.7 774 1097 768.8C1188.3 763.7 1279.7 748.3 1371.2 736.8C1462.7 725.3 1554.3 717.7 1645.8 709.7C1737.3 701.7 1828.7 693.3 1874.3 689.2L1920 685L1920 921L1874.3 921C1828.7 921 1737.3 921 1645.8 921C1554.3 921 1462.7 921 1371.2 921C1279.7 921 1188.3 921 1097 921C1005.7 921 914.3 921 823 921C731.7 921 640.3 921 548.8 921C457.3 921 365.7 921 274.2 921C182.7 921 91.3 921 45.7 921L0 921Z" fill="#fcdae1"></path><path d="M0 757L45.7 760C91.3 763 182.7 769 274.2 777C365.7 785 457.3 795 548.8 797.5C640.3 800 731.7 795 823 788C914.3 781 1005.7 772 1097 774.5C1188.3 777 1279.7 791 1371.2 793.5C1462.7 796 1554.3 787 1645.8 789.8C1737.3 792.7 1828.7 807.3 1874.3 814.7L1920 822L1920 921L1874.3 921C1828.7 921 1737.3 921 1645.8 921C1554.3 921 1462.7 921 1371.2 921C1279.7 921 1188.3 921 1097 921C1005.7 921 914.3 921 823 921C731.7 921 640.3 921 548.8 921C457.3 921 365.7 921 274.2 921C182.7 921 91.3 921 45.7 921L0 921Z" fill="#fecfde"></path><path d="M0 854L45.7 857.2C91.3 860.3 182.7 866.7 274.2 869.5C365.7 872.3 457.3 871.7 548.8 871C640.3 870.3 731.7 869.7 823 867.7C914.3 865.7 1005.7 862.3 1097 856.3C1188.3 850.3 1279.7 841.7 1371.2 841.3C1462.7 841 1554.3 849 1645.8 849.3C1737.3 849.7 1828.7 842.3 1874.3 838.7L1920 835L1920 921L1874.3 921C1828.7 921 1737.3 921 1645.8 921C1554.3 921 1462.7 921 1371.2 921C1279.7 921 1188.3 921 1097 921C1005.7 921 914.3 921 823 921C731.7 921 640.3 921 548.8 921C457.3 921 365.7 921 274.2 921C182.7 921 91.3 921 45.7 921L0 921Z" fill="#ffc5dd"></path></svg>